<svg aria-hidden="true" style="position: absolute; width: 0; height: 0; overflow: hidden;" version="1.1" xmlns="http://www.w3.org/2000/svg" xmlns:xlink="http://www.w3.org/1999/xlink">
<defs>
<symbol id="icon-burger-menu" viewBox="0 0 32 32">
<path fill="#fff" style="fill: var(--color1, #fff)" d="M4 16c0-0.552 0.448-1 1-1h22c0.552 0 1 0.448 1 1s-0.448 1-1 1h-22c-0.552 0-1-0.448-1-1z"></path>
<path fill="#fff" style="fill: var(--color1, #fff)" d="M4 8c0-0.552 0.448-1 1-1h15c0.552 0 1 0.448 1 1s-0.448 1-1 1h-15c-0.552 0-1-0.448-1-1z"></path>
<path fill="#fff" style="fill: var(--color1, #fff)" d="M4 24c0-0.552 0.448-1 1-1h15c0.552 0 1 0.448 1 1s-0.448 1-1 1h-15c-0.552 0-1-0.448-1-1z"></path>
</symbol>
<symbol id="icon-marketplace" viewBox="0 0 300 32">
<path fill="#fff" style="fill: var(--color1, #fff)" d="M11.22 21.82h0.594v-20.922h4.356v23.1h-8.514l-2.706-20.922h-0.594v20.922h-4.356v-23.1h8.514l2.706 20.922z"></path>
<path fill="#fff" style="fill: var(--color1, #fff)" d="M21.097 0.898h14.784v4.158h-10.428v5.28h10.23v4.158h-10.23v9.504h-4.356v-23.1z"></path>
<path fill="#fff" style="fill: var(--color1, #fff)" d="M40.181 0.898h16.632v4.158h-6.138v18.942h-4.356v-18.942h-6.138v-4.158z"></path>
<path fill="#fff" style="fill: var(--color1, #fff)" d="M79.537 0.898h7.656l1.32 17.358v3.366h0.792v-3.366l1.32-17.358h7.656v23.1h-3.96v-15.444l0.396-5.28h-0.792l-1.716 20.724h-6.534l-1.782-20.724h-0.792l0.396 5.28v15.444h-3.96v-23.1z"></path>
<path fill="#fff" style="fill: var(--color1, #fff)" d="M112.184 21.622c-0.44 1.034-1.056 1.771-1.848 2.211-0.792 0.418-1.716 0.627-2.772 0.627-0.99 0-1.925-0.187-2.805-0.561-0.858-0.374-1.617-0.924-2.277-1.65s-1.188-1.606-1.584-2.64c-0.374-1.034-0.561-2.211-0.561-3.531v-0.528c0-1.298 0.187-2.464 0.561-3.498s0.88-1.914 1.518-2.64c0.638-0.726 1.375-1.276 2.211-1.65 0.858-0.396 1.771-0.594 2.739-0.594 1.166 0 2.101 0.198 2.805 0.594 0.726 0.396 1.298 1.012 1.716 1.848h0.594v-1.98h4.158v11.418c0 0.66 0.297 0.99 0.891 0.99h0.627v3.96h-2.838c-0.748 0-1.364-0.22-1.848-0.66-0.462-0.44-0.693-1.012-0.693-1.716h-0.594zM108.488 20.5c1.21 0 2.178-0.396 2.904-1.188 0.726-0.814 1.089-1.914 1.089-3.3v-0.396c0-1.386-0.363-2.475-1.089-3.267-0.726-0.814-1.694-1.221-2.904-1.221s-2.178 0.407-2.904 1.221c-0.726 0.792-1.089 1.881-1.089 3.267v0.396c0 1.386 0.363 2.486 1.089 3.3 0.726 0.792 1.694 1.188 2.904 1.188z"></path>
<path fill="#fff" style="fill: var(--color1, #fff)" d="M121.005 7.63h6.93v2.376h0.594c0.308-0.902 0.825-1.595 1.551-2.079 0.748-0.506 1.639-0.759 2.673-0.759 1.628 0 2.937 0.517 3.927 1.551 0.99 1.012 1.485 2.563 1.485 4.653v0.726l-4.29 0.396v-0.462c0-0.902-0.231-1.617-0.693-2.145-0.462-0.55-1.155-0.825-2.079-0.825s-1.65 0.319-2.178 0.957c-0.528 0.638-0.792 1.551-0.792 2.739v5.28h3.762v3.96h-11.286v-3.96h3.366v-8.448h-2.97v-3.96z"></path>
<path fill="#fff" style="fill: var(--color1, #fff)" d="M147.481 13.636h0.792l4.356-6.006h4.554v0.198l-5.28 7.491v0.594l5.808 7.887v0.198h-4.752l-4.686-6.402h-0.792v6.402h-4.158v-23.1h4.158v12.738z"></path>
<path fill="#fff" style="fill: var(--color1, #fff)" d="M165.872 17.167c0.022 0.484 0.132 0.935 0.33 1.353 0.22 0.396 0.506 0.748 0.858 1.056 0.374 0.286 0.792 0.517 1.254 0.693 0.484 0.154 0.99 0.231 1.518 0.231 1.034 0 1.826-0.176 2.376-0.528 0.55-0.374 0.946-0.814 1.188-1.32l3.564 1.98c-0.198 0.418-0.473 0.858-0.825 1.32-0.352 0.44-0.814 0.847-1.386 1.221-0.55 0.374-1.232 0.682-2.046 0.924-0.792 0.242-1.727 0.363-2.805 0.363-1.232 0-2.354-0.198-3.366-0.594s-1.892-0.968-2.64-1.716c-0.726-0.748-1.298-1.661-1.716-2.739-0.396-1.078-0.594-2.299-0.594-3.663v-0.198c0-1.254 0.209-2.398 0.627-3.432 0.44-1.034 1.034-1.914 1.782-2.64s1.617-1.287 2.607-1.683c1.012-0.418 2.090-0.627 3.234-0.627 1.408 0 2.618 0.253 3.63 0.759 1.012 0.484 1.848 1.111 2.508 1.881 0.66 0.748 1.144 1.584 1.452 2.508 0.308 0.902 0.462 1.782 0.462 2.64v2.211h-12.012zM169.799 10.93c-1.056 0-1.914 0.275-2.574 0.825-0.66 0.528-1.089 1.144-1.287 1.848h7.722c-0.132-0.77-0.55-1.408-1.254-1.914-0.682-0.506-1.551-0.759-2.607-0.759z"></path>
<path fill="#fff" style="fill: var(--color1, #fff)" d="M181.953 7.63h4.851v-6.732h4.158v6.732h5.907v3.96h-5.907v7.458c0 0.66 0.297 0.99 0.891 0.99h4.422v3.96h-6.93c-0.748 0-1.364-0.242-1.848-0.726-0.462-0.484-0.693-1.1-0.693-1.848v-9.834h-4.851v-3.96z"></path>
<path fill="#fff" style="fill: var(--color1, #fff)" d="M205.922 30.598h-4.158v-22.968h4.158v2.376h0.594c0.44-0.902 1.078-1.595 1.914-2.079 0.836-0.506 1.902-0.759 3.2-0.759 0.968 0 1.882 0.187 2.74 0.561 0.88 0.374 1.638 0.924 2.276 1.65 0.66 0.704 1.178 1.573 1.552 2.607 0.396 1.034 0.594 2.211 0.594 3.531v0.594c0 1.342-0.188 2.53-0.562 3.564s-0.88 1.914-1.518 2.64c-0.638 0.704-1.396 1.243-2.276 1.617-0.858 0.352-1.794 0.528-2.806 0.528-0.748 0-1.396-0.077-1.946-0.231s-1.034-0.363-1.452-0.627c-0.396-0.264-0.738-0.561-1.024-0.891-0.264-0.352-0.494-0.715-0.692-1.089h-0.594v8.976zM210.278 20.5c1.298 0 2.342-0.396 3.134-1.188 0.814-0.814 1.222-1.914 1.222-3.3v-0.396c0-1.386-0.408-2.475-1.222-3.267-0.792-0.814-1.836-1.221-3.134-1.221s-2.354 0.418-3.168 1.254c-0.792 0.814-1.188 1.892-1.188 3.234v0.396c0 1.342 0.396 2.431 1.188 3.267 0.814 0.814 1.87 1.221 3.168 1.221z"></path>
<path fill="#fff" style="fill: var(--color1, #fff)" d="M222.728 20.038h5.742v-15.18h-5.544v-3.96h9.702v19.14h5.346v3.96h-15.246v-3.96z"></path>
<path fill="#fff" style="fill: var(--color1, #fff)" d="M253.626 21.622c-0.44 1.034-1.056 1.771-1.848 2.211-0.792 0.418-1.716 0.627-2.772 0.627-0.99 0-1.924-0.187-2.804-0.561-0.858-0.374-1.618-0.924-2.278-1.65s-1.188-1.606-1.584-2.64c-0.374-1.034-0.56-2.211-0.56-3.531v-0.528c0-1.298 0.186-2.464 0.56-3.498s0.88-1.914 1.518-2.64c0.638-0.726 1.376-1.276 2.212-1.65 0.858-0.396 1.77-0.594 2.738-0.594 1.166 0 2.102 0.198 2.806 0.594 0.726 0.396 1.298 1.012 1.716 1.848h0.594v-1.98h4.158v11.418c0 0.66 0.296 0.99 0.89 0.99h0.628v3.96h-2.838c-0.748 0-1.364-0.22-1.848-0.66-0.462-0.44-0.694-1.012-0.694-1.716h-0.594zM249.93 20.5c1.21 0 2.178-0.396 2.904-1.188 0.726-0.814 1.090-1.914 1.090-3.3v-0.396c0-1.386-0.364-2.475-1.090-3.267-0.726-0.814-1.694-1.221-2.904-1.221s-2.178 0.407-2.904 1.221c-0.726 0.792-1.088 1.881-1.088 3.267v0.396c0 1.386 0.362 2.486 1.088 3.3 0.726 0.792 1.694 1.188 2.904 1.188z"></path>
<path fill="#fff" style="fill: var(--color1, #fff)" d="M279.212 17.992c-0.374 1.936-1.266 3.498-2.674 4.686-1.386 1.188-3.244 1.782-5.576 1.782-1.21 0-2.344-0.187-3.4-0.561-1.034-0.374-1.936-0.913-2.706-1.617s-1.374-1.573-1.814-2.607c-0.44-1.034-0.66-2.211-0.66-3.531v-0.396c0-1.32 0.22-2.508 0.66-3.564s1.044-1.958 1.814-2.706c0.792-0.748 1.706-1.32 2.74-1.716 1.056-0.396 2.178-0.594 3.366-0.594 2.288 0 4.136 0.594 5.544 1.782 1.43 1.188 2.332 2.75 2.706 4.686l-4.092 1.056c-0.132-0.968-0.55-1.804-1.254-2.508s-1.694-1.056-2.97-1.056c-0.594 0-1.156 0.11-1.684 0.33s-0.99 0.539-1.386 0.957c-0.396 0.396-0.714 0.891-0.956 1.485-0.22 0.572-0.33 1.221-0.33 1.947v0.198c0 0.726 0.11 1.375 0.33 1.947 0.242 0.55 0.56 1.012 0.956 1.386s0.858 0.66 1.386 0.858c0.528 0.176 1.090 0.264 1.684 0.264 1.276 0 2.244-0.319 2.904-0.957 0.682-0.638 1.122-1.496 1.32-2.574l4.092 1.023z"></path>
<path fill="#fff" style="fill: var(--color1, #fff)" d="M287.108 17.167c0.022 0.484 0.132 0.935 0.33 1.353 0.22 0.396 0.506 0.748 0.858 1.056 0.374 0.286 0.792 0.517 1.254 0.693 0.484 0.154 0.99 0.231 1.518 0.231 1.034 0 1.826-0.176 2.376-0.528 0.55-0.374 0.946-0.814 1.188-1.32l3.564 1.98c-0.198 0.418-0.472 0.858-0.824 1.32-0.352 0.44-0.814 0.847-1.386 1.221-0.55 0.374-1.232 0.682-2.046 0.924-0.792 0.242-1.728 0.363-2.806 0.363-1.232 0-2.354-0.198-3.366-0.594s-1.892-0.968-2.64-1.716c-0.726-0.748-1.298-1.661-1.716-2.739-0.396-1.078-0.594-2.299-0.594-3.663v-0.198c0-1.254 0.21-2.398 0.628-3.432 0.44-1.034 1.034-1.914 1.782-2.64s1.616-1.287 2.606-1.683c1.012-0.418 2.090-0.627 3.234-0.627 1.408 0 2.618 0.253 3.63 0.759 1.012 0.484 1.848 1.111 2.508 1.881 0.66 0.748 1.144 1.584 1.452 2.508 0.308 0.902 0.462 1.782 0.462 2.64v2.211h-12.012zM291.036 10.93c-1.056 0-1.914 0.275-2.574 0.825-0.66 0.528-1.090 1.144-1.288 1.848h7.722c-0.132-0.77-0.55-1.408-1.254-1.914-0.682-0.506-1.55-0.759-2.606-0.759z"></path>
</symbol>
<symbol id="icon-paint" viewBox="0 0 32 32">
<path stroke-linejoin="round" stroke-linecap="round" stroke-miterlimit="4" stroke-width="1.2" d="M2.5 27h9c1.286 0 2.542-0.381 3.611-1.095s1.902-1.729 2.394-2.917c0.492-1.188 0.621-2.495 0.37-3.756s-0.87-2.419-1.779-3.328c-0.909-0.909-2.067-1.528-3.328-1.779s-2.568-0.122-3.756 0.37c-1.188 0.492-2.203 1.325-2.917 2.394s-1.095 2.326-1.095 3.611c0 4.5-2.5 6.5-2.5 6.5z"></path>
<path stroke-linejoin="round" stroke-linecap="round" stroke-miterlimit="4" stroke-width="1.2" d="M14.050 14.525c2.4-3.237 8.5-10.65 14.075-10.65 0 5.575-7.412 11.675-10.65 14.075"></path>
<path stroke-linejoin="round" stroke-linecap="round" stroke-miterlimit="4" stroke-width="1.2" d="M16.625 11.325c1.694 0.956 3.094 2.356 4.050 4.050"></path>
</symbol>
<symbol id="icon-planet" viewBox="0 0 32 32">
<path stroke-linejoin="round" stroke-linecap="round" stroke-miterlimit="4" stroke-width="1.2" d="M16.2 27c6.075 0 11-4.925 11-11s-4.925-11-11-11c-6.075 0-11 4.925-11 11s4.925 11 11 11z"></path>
<path stroke-linejoin="round" stroke-linecap="round" stroke-miterlimit="4" stroke-width="1.2" d="M23.225 7.538c3.463-0.95 6.063-0.863 6.838 0.462 1.375 2.388-3.713 7.913-11.363 12.325s-14.975 6.063-16.362 3.675c-0.762-1.325 0.462-3.625 3.012-6.15"></path>
</symbol>
<symbol id="icon-basketball" viewBox="0 0 32 32">
<path stroke-linejoin="round" stroke-linecap="round" stroke-miterlimit="4" stroke-width="1.2" d="M16 28c6.627 0 12-5.373 12-12s-5.373-12-12-12c-6.627 0-12 5.373-12 12s5.373 12 12 12z"></path>
<path stroke-linejoin="round" stroke-linecap="round" stroke-miterlimit="4" stroke-width="1.2" d="M7.5 7.525c2.244 2.25 3.503 5.298 3.5 8.475 0.003 3.177-1.256 6.225-3.5 8.475"></path>
<path stroke-linejoin="round" stroke-linecap="round" stroke-miterlimit="4" stroke-width="1.2" d="M24.5 7.525c-2.241 2.251-3.499 5.298-3.499 8.475s1.258 6.224 3.499 8.475"></path>
<path stroke-linejoin="round" stroke-linecap="round" stroke-miterlimit="4" stroke-width="1.2" d="M4 16h24"></path>
<path stroke-linejoin="round" stroke-linecap="round" stroke-miterlimit="4" stroke-width="1.2" d="M16 4v24"></path>
</symbol>
<symbol id="icon-magic" viewBox="0 0 32 32">
<path stroke-linejoin="round" stroke-linecap="round" stroke-miterlimit="4" stroke-width="1.2" d="M27.2 16v6"></path>
<path stroke-linejoin="round" stroke-linecap="round" stroke-miterlimit="4" stroke-width="1.2" d="M24.2 19h6"></path>
<path stroke-linejoin="round" stroke-linecap="round" stroke-miterlimit="4" stroke-width="1.2" d="M10.7 5v5"></path>
<path stroke-linejoin="round" stroke-linecap="round" stroke-miterlimit="4" stroke-width="1.2" d="M8.2 7.5h5"></path>
<path stroke-linejoin="round" stroke-linecap="round" stroke-miterlimit="4" stroke-width="1.2" d="M21.2 23v4"></path>
<path stroke-linejoin="round" stroke-linecap="round" stroke-miterlimit="4" stroke-width="1.2" d="M19.2 25h4"></path>
<path stroke-linejoin="round" stroke-linecap="round" stroke-miterlimit="4" stroke-width="1.2" d="M23.503 4.704l-18.588 18.588c-0.391 0.391-0.391 1.024 0 1.414l2.585 2.585c0.391 0.391 1.024 0.391 1.414 0l18.588-18.588c0.391-0.391 0.391-1.024 0-1.414l-2.585-2.585c-0.391-0.391-1.024-0.391-1.414 0z"></path>
<path stroke-linejoin="round" stroke-linecap="round" stroke-miterlimit="4" stroke-width="1.2" d="M18.2 10l4 4"></path>
</symbol>
<symbol id="icon-video-camera" viewBox="0 0 32 32">
<path stroke-linejoin="round" stroke-linecap="round" stroke-miterlimit="4" stroke-width="1.2" d="M3 7.5h16c1.061 0 2.078 0.421 2.828 1.172s1.172 1.768 1.172 2.828v12c0 0.265-0.105 0.52-0.293 0.707s-0.442 0.293-0.707 0.293h-16c-1.061 0-2.078-0.421-2.828-1.172s-1.172-1.768-1.172-2.828v-12c0-0.265 0.105-0.52 0.293-0.707s0.442-0.293 0.707-0.293v0z"></path>
<path stroke-linejoin="round" stroke-linecap="round" stroke-miterlimit="4" stroke-width="1.2" d="M23 14l7-4v12l-7-4"></path>
</symbol>
<symbol id="icon-camera" viewBox="0 0 32 32">
<path stroke-linejoin="round" stroke-linecap="round" stroke-miterlimit="4" stroke-width="1.2" d="M26.2 26h-20c-0.53 0-1.039-0.211-1.414-0.586s-0.586-0.884-0.586-1.414v-14c0-0.53 0.211-1.039 0.586-1.414s0.884-0.586 1.414-0.586h4l2-3h8l2 3h4c0.53 0 1.039 0.211 1.414 0.586s0.586 0.884 0.586 1.414v14c0 0.53-0.211 1.039-0.586 1.414s-0.884 0.586-1.414 0.586z"></path>
<path stroke-linejoin="round" stroke-linecap="round" stroke-miterlimit="4" stroke-width="1.2" d="M16.2 21c2.485 0 4.5-2.015 4.5-4.5s-2.015-4.5-4.5-4.5c-2.485 0-4.5 2.015-4.5 4.5s2.015 4.5 4.5 4.5z"></path>
</symbol>
<symbol id="icon-notes" viewBox="0 0 32 32">
<path stroke-linejoin="round" stroke-linecap="round" stroke-miterlimit="4" stroke-width="1.2" d="M22.5 25c1.933 0 3.5-1.567 3.5-3.5s-1.567-3.5-3.5-3.5c-1.933 0-3.5 1.567-3.5 3.5s1.567 3.5 3.5 3.5z"></path>
<path stroke-linejoin="round" stroke-linecap="round" stroke-miterlimit="4" stroke-width="1.2" d="M6.5 29c1.933 0 3.5-1.567 3.5-3.5s-1.567-3.5-3.5-3.5c-1.933 0-3.5 1.567-3.5 3.5s1.567 3.5 3.5 3.5z"></path>
<path stroke-linejoin="round" stroke-linecap="round" stroke-miterlimit="4" stroke-width="1.2" d="M26 10l-16 4"></path>
<path stroke-linejoin="round" stroke-linecap="round" stroke-miterlimit="4" stroke-width="1.2" d="M10 25.5v-17.5l16-4v17.5"></path>
</symbol>
<symbol id="icon-swatches" viewBox="0 0 32 32">
<path stroke-linejoin="round" stroke-linecap="round" stroke-miterlimit="4" stroke-width="1.2" d="M4.787 21.625l3.025-17.137c0.021-0.129 0.068-0.253 0.137-0.364s0.16-0.207 0.267-0.283c0.107-0.076 0.228-0.129 0.356-0.158s0.26-0.031 0.389-0.008l6.9 1.213c0.261 0.049 0.492 0.198 0.644 0.415s0.212 0.486 0.169 0.747l-3.038 17.238c-0.208 1.161-0.862 2.194-1.822 2.878s-2.15 0.966-3.315 0.784c-2.487-0.4-4.15-2.837-3.712-5.325z"></path>
<path stroke-linejoin="round" stroke-linecap="round" stroke-miterlimit="4" stroke-width="1.2" d="M14.988 15.6l9.112-3.313c0.124-0.046 0.256-0.066 0.388-0.061s0.262 0.037 0.381 0.093c0.12 0.056 0.227 0.135 0.316 0.232s0.158 0.212 0.202 0.336l2.4 6.575c0.089 0.249 0.075 0.522-0.037 0.761s-0.315 0.424-0.563 0.514l-16.45 5.988"></path>
<path stroke-linejoin="round" stroke-linecap="round" stroke-miterlimit="4" stroke-width="1.2" d="M27.7 20.312v5.688c0 0.265-0.105 0.52-0.293 0.707s-0.442 0.293-0.707 0.293h-17.5"></path>
<path d="M9.2 24c0.828 0 1.5-0.672 1.5-1.5s-0.672-1.5-1.5-1.5c-0.828 0-1.5 0.672-1.5 1.5s0.672 1.5 1.5 1.5z"></path>
</symbol>
<symbol id="icon-instagram" viewBox="0 0 32 32">
<path d="M16 12c-2.209 0-4 1.791-4 4s1.791 4 4 4c2.209 0 4-1.791 4-4s-1.791-4-4-4zM10 16c0-3.314 2.686-6 6-6s6 2.686 6 6c0 3.314-2.686 6-6 6s-6-2.686-6-6z"></path>
<path d="M10.5 5.5c-2.761 0-5 2.239-5 5v11c0 2.761 2.239 5 5 5h11c2.761 0 5-2.239 5-5v-11c0-2.761-2.239-5-5-5h-11zM3.5 10.5c0-3.866 3.134-7 7-7h11c3.866 0 7 3.134 7 7v11c0 3.866-3.134 7-7 7h-11c-3.866 0-7-3.134-7-7v-11z"></path>
<path d="M22.5 11c0.828 0 1.5-0.672 1.5-1.5s-0.672-1.5-1.5-1.5c-0.828 0-1.5 0.672-1.5 1.5s0.672 1.5 1.5 1.5z"></path>
</symbol>
<symbol id="icon-twitter" viewBox="0 0 32 32">
<path stroke-linejoin="round" stroke-linecap="round" stroke-miterlimit="4" stroke-width="2" d="M16.001 11.001c0-2.75 2.313-5.038 5.063-5 0.963 0.011 1.902 0.3 2.705 0.832s1.435 1.285 1.82 2.168h4.412l-4.038 4.038c-0.261 4.056-2.056 7.86-5.021 10.639s-6.877 4.325-10.941 4.323c-4 0-5-1.5-5-1.5s4-1.5 6-4.5c0 0-8-4-6-15 0 0 5 5 11 6v-2z"></path>
</symbol>
<symbol id="icon-youtube" viewBox="0 0 32 32">
<path d="M13.528 11.118c0.325-0.174 0.72-0.155 1.027 0.050l6 4c0.278 0.185 0.445 0.498 0.445 0.832s-0.167 0.647-0.445 0.832l-6 4c-0.307 0.204-0.701 0.224-1.027 0.050s-0.528-0.513-0.528-0.882v-8c0-0.369 0.203-0.708 0.528-0.882zM15 13.868v4.263l3.197-2.131-3.197-2.131z"></path>
<path d="M15.998 5.051h0.083c0.055 0 0.134 0.001 0.236 0.002 0.204 0.002 0.497 0.007 0.863 0.018 0.729 0.022 1.746 0.068 2.897 0.165 2.276 0.192 5.174 0.591 7.406 1.444l0.015 0.006c0.438 0.175 0.829 0.451 1.141 0.806s0.536 0.777 0.655 1.234l0.001 0.004c0.311 1.219 0.706 3.478 0.706 7.273s-0.395 6.054-0.706 7.273l-0.001 0.004c-0.119 0.457-0.343 0.88-0.655 1.234s-0.703 0.63-1.141 0.806l-0.015 0.006c-2.231 0.852-5.129 1.251-7.406 1.444-1.151 0.097-2.168 0.143-2.897 0.165-0.365 0.011-0.659 0.016-0.863 0.018-0.102 0.001-0.181 0.001-0.236 0.002h-0.162c-0.055-0-0.134-0-0.236-0.002-0.204-0.002-0.498-0.007-0.863-0.018-0.729-0.022-1.746-0.068-2.897-0.165-2.276-0.192-5.174-0.591-7.406-1.444l-0.015-0.006c-0.438-0.175-0.829-0.451-1.141-0.806s-0.536-0.777-0.655-1.234l-0.001-0.004c-0.311-1.218-0.706-3.478-0.706-7.273s0.395-6.054 0.706-7.273l0.001-0.004c0.119-0.457 0.343-0.88 0.655-1.234s0.703-0.63 1.141-0.806l0.015-0.006c2.231-0.853 5.129-1.251 7.406-1.444 1.151-0.097 2.168-0.143 2.897-0.165 0.365-0.011 0.659-0.016 0.863-0.018 0.102-0.001 0.181-0.001 0.236-0.002h0.080zM15.995 24.951l0.011-0 0.003 0h0.068c0.049-0 0.123-0 0.219-0.002 0.192-0.002 0.473-0.007 0.824-0.017 0.702-0.021 1.682-0.066 2.789-0.159 2.236-0.189 4.896-0.57 6.852-1.316 0.145-0.059 0.274-0.151 0.377-0.268 0.105-0.119 0.18-0.26 0.22-0.413 0.264-1.032 0.643-3.122 0.643-6.775s-0.38-5.743-0.643-6.775c-0.040-0.153-0.115-0.294-0.22-0.413-0.103-0.117-0.233-0.209-0.377-0.268-1.956-0.745-4.616-1.127-6.852-1.316-1.107-0.093-2.087-0.138-2.789-0.159-0.351-0.011-0.632-0.015-0.824-0.017-0.096-0.001-0.17-0.001-0.219-0.002h-0.153c-0.049 0-0.123 0-0.219 0.002-0.192 0.002-0.473 0.007-0.824 0.017-0.702 0.021-1.682 0.066-2.789 0.159-2.236 0.189-4.896 0.57-6.851 1.316-0.145 0.059-0.274 0.151-0.377 0.268-0.104 0.119-0.18 0.26-0.22 0.413-0.264 1.032-0.643 3.122-0.643 6.775s0.38 5.743 0.643 6.775c0.040 0.153 0.115 0.294 0.22 0.413 0.103 0.117 0.233 0.209 0.377 0.268 1.956 0.745 4.616 1.127 6.852 1.316 1.107 0.093 2.086 0.138 2.789 0.159 0.351 0.011 0.632 0.015 0.824 0.017 0.096 0.001 0.17 0.001 0.219 0.002h0.071z"></path>
</symbol>
<symbol id="icon-discord" viewBox="0 0 32 32">
<path d="M12 19.5c0.828 0 1.5-0.672 1.5-1.5s-0.672-1.5-1.5-1.5c-0.828 0-1.5 0.672-1.5 1.5s0.672 1.5 1.5 1.5z"></path>
<path d="M20 19.5c0.828 0 1.5-0.672 1.5-1.5s-0.672-1.5-1.5-1.5c-0.828 0-1.5 0.672-1.5 1.5s0.672 1.5 1.5 1.5z"></path>
<path d="M15.992 10.001c-2.168-0.016-4.325 0.306-6.394 0.954-0.527 0.165-1.088-0.128-1.253-0.655s0.128-1.088 0.655-1.253c2.265-0.71 4.626-1.063 6.999-1.046 2.373-0.017 4.734 0.336 6.999 1.046 0.527 0.165 0.82 0.726 0.655 1.253s-0.726 0.82-1.253 0.655c-2.069-0.648-4.226-0.97-6.393-0.954h-0.015z"></path>
<path d="M8.345 21.701c0.165-0.527 0.726-0.82 1.253-0.655 2.069 0.648 4.226 0.97 6.394 0.954h0.015c2.168 0.016 4.325-0.306 6.393-0.954 0.527-0.165 1.088 0.128 1.253 0.655s-0.128 1.088-0.655 1.253c-2.265 0.71-4.626 1.063-6.999 1.046-2.373 0.017-4.735-0.336-6.999-1.046-0.527-0.165-0.82-0.726-0.655-1.253z"></path>
<path d="M20.22 4.81c0.43-0.243 0.935-0.319 1.418-0.213 1.318 0.286 2.608 0.686 3.855 1.197 0.281 0.108 0.533 0.28 0.737 0.501 0.206 0.224 0.358 0.492 0.442 0.785l4.236 14.144c0.11 0.368 0.113 0.761 0.007 1.131s-0.315 0.702-0.604 0.956l-0.005 0.005c-2.067 1.799-4.869 3.161-8.051 3.941-0.442 0.113-0.909 0.069-1.323-0.124-0.412-0.192-0.744-0.52-0.942-0.929l-1.508-2.992c-0.249-0.493-0.050-1.095 0.443-1.343s1.095-0.050 1.343 0.443l1.514 3.002c2.938-0.72 5.432-1.957 7.212-3.506l0.656 0.754-0.662-0.75c0.002-0.002 0.003-0.004 0.004-0.006s0.001-0.005-0-0.007l-4.236-14.145c-0.003-0.001-0.007-0.003-0.011-0.004-1.143-0.469-2.325-0.836-3.532-1.098l-0.002-0c-0.003-0.001-0.006-0-0.009 0.001s-0.004 0.003-0.005 0.006l-0.985 2.98c-0.173 0.524-0.739 0.809-1.263 0.636s-0.809-0.739-0.636-1.263l0.99-2.996c0.16-0.468 0.486-0.861 0.917-1.104z"></path>
<path d="M10.798 6.552c-0.003-0.002-0.006-0.002-0.009-0.001l-0.002 0c-1.207 0.262-2.389 0.629-3.532 1.098-0.004 0.001-0.007 0.003-0.011 0.004l-4.236 14.145c-0.001 0.002-0.001 0.005-0 0.007s0.002 0.004 0.003 0.006c1.78 1.547 4.272 2.782 7.207 3.502l0.001-0.002 1.512-3c0.249-0.493 0.85-0.691 1.343-0.443s0.691 0.85 0.443 1.343l-1.508 2.992c-0.198 0.409-0.531 0.737-0.942 0.929-0.413 0.193-0.881 0.237-1.323 0.124-3.182-0.78-5.983-2.142-8.051-3.941l-0.005-0.005c-0.288-0.255-0.498-0.586-0.604-0.956s-0.103-0.762 0.007-1.131c-0 0 0 0 0 0l4.236-14.145c0.085-0.292 0.236-0.561 0.442-0.785 0.204-0.221 0.456-0.393 0.737-0.501 1.248-0.511 2.538-0.912 3.856-1.197 0.482-0.105 0.987-0.029 1.417 0.213s0.757 0.636 0.916 1.104l0.003 0.009 0.987 2.988c0.173 0.524-0.111 1.090-0.636 1.263s-1.090-0.111-1.263-0.636l-0.985-2.98c-0.001-0.003-0.003-0.005-0.005-0.006z"></path>
</symbol>
</defs>
</svg>
